<?xml version="1.0" encoding="utf-8"?>
<!-- Generator: Adobe Illustrator 15.0.2, SVG Export Plug-In . SVG Version: 6.00 Build 0)  -->
<!DOCTYPE svg PUBLIC "-//W3C//DTD SVG 1.1//EN" "http://www.w3.org/Graphics/SVG/1.1/DTD/svg11.dtd">
<svg version="1.1" id="Ebene_1" xmlns="http://www.w3.org/2000/svg" xmlns:xlink="http://www.w3.org/1999/xlink" x="0px" y="0px"
	 width="170.574px" height="48px" viewBox="0 0 170.574 48" enable-background="new 0 0 170.574 48" xml:space="preserve">
<g>
	<path fill="#D07327" d="M146.573,0H24C10.745,0,0,10.745,0,24s10.745,24,24,24h122.573c13.255,0,24.001-10.745,24.001-24
		S159.828,0,146.573,0z"/>
	<path fill="#FFFFFF" d="M36.609,23.264c1.255-0.893,2.218-2.266,2.218-3.88c0-3.415-2.63-5.773-6.298-5.773H22.157v20.325
		l10.708-0.001c3.52,0,6.54-2.578,6.54-6.096C39.404,25.743,38.312,24.2,36.609,23.264z M25.869,16.923h6.467
		c1.535,0,2.713,1.111,2.713,2.582c0,1.51-1.089,2.571-2.773,2.571l-6.407,0.003V16.923z M32.731,30.622h-6.869v-5.396l6.929-0.005
		c1.759,0,2.836,1.066,2.836,2.635C35.628,29.417,34.413,30.622,32.731,30.622z M53.04,13.057c-5.101,0-9.306,4.136-9.306,9.237
		v10.301c0,1.045,0.847,1.893,1.893,1.893s1.91-0.848,1.91-1.893v-5.861h10.87v5.861c0,1.045,0.848,1.893,1.894,1.893
		c1.045,0,1.909-0.848,1.909-1.893V22.294C62.208,17.193,58.142,13.057,53.04,13.057z M58.406,23.417h-10.87v-1.061
		c0-3.159,2.013-5.72,5.435-5.72c3.42,0,5.435,2.561,5.435,5.72V23.417z M80.2,17.136h-9.053v5.935c0,0,6.923,0,7.896,0
		s1.661,0.745,1.661,1.66c0,0.916-0.742,1.658-1.658,1.658h-7.899v6.207c0,1.045-0.864,1.893-1.909,1.893
		c-1.046,0-1.893-0.848-1.893-1.893h0v-18.99l12.813,0.005c1.063,0,1.806,0.788,1.806,1.761
		C81.964,16.347,81.174,17.136,80.2,17.136z M93.977,13.057c-5.103,0-9.308,4.136-9.308,9.237v10.301
		c0,1.045,0.85,1.893,1.894,1.893c1.047,0,1.91-0.848,1.91-1.893v-5.861h10.87v5.861c0,1.045,0.848,1.893,1.893,1.893
		s1.91-0.848,1.91-1.893V22.294C103.146,17.193,99.077,13.057,93.977,13.057z M99.343,23.417h-10.87v-1.061
		c0-3.159,2.014-5.72,5.436-5.72c3.42,0,5.435,2.561,5.435,5.72V23.417z M125.836,32.596c0,1.045-0.934,1.893-1.979,1.893
		c-1.046,0-1.962-0.848-1.962-1.893v-10.58c0-2.825-1.944-5.208-4.85-5.208s-4.851,2.383-4.851,5.208v10.58
		c0,1.045-0.932,1.893-1.979,1.893c-1.045,0-1.961-0.848-1.961-1.893v-10.78c0-4.861,3.997-8.759,8.858-8.759
		c4.86,0,8.722,3.897,8.722,8.759V32.596z M140.908,34.488c-6.103,0-10.783-4.557-10.783-10.716c0-5.918,4.845-10.715,10.854-10.715
		c2.916,0,5.08,0.734,7.011,2.248c0.83,0.652,0.962,1.827,0.365,2.609c-0.621,0.814-1.652,1.006-2.459,0.445
		c-1.533-1.067-2.916-1.726-4.989-1.726c-3.823,0-6.926,3.07-6.926,7.014c0,4.285,3.042,7.266,6.986,7.266
		c1.563,0,2.952-0.412,4.043-1.109v-4.11h-3.419c0,0-0.002,0-0.004,0c-0.925,0-1.675-0.75-1.675-1.676
		c0-0.926,0.75-1.677,1.675-1.677h7.222c0,0,0.002,6.841,0.002,9.222C147.046,33.094,144.241,34.488,140.908,34.488z"/>
</g>
</svg>
