<?xml version="1.0" encoding="utf-8"?>
<!-- Generator: Adobe Illustrator 15.0.2, SVG Export Plug-In . SVG Version: 6.00 Build 0)  -->
<!DOCTYPE svg PUBLIC "-//W3C//DTD SVG 1.1//EN" "http://www.w3.org/Graphics/SVG/1.1/DTD/svg11.dtd">
<svg version="1.1" id="Ebene_1" xmlns="http://www.w3.org/2000/svg" xmlns:xlink="http://www.w3.org/1999/xlink" x="0px" y="0px"
	 width="70px" height="70px" viewBox="0 0 70 70" enable-background="new 0 0 70 70" xml:space="preserve">
<path fill="#E8C425" d="M35,70c19.33,0,35-15.67,35-35S54.33,0,35,0S0,15.67,0,35S15.67,70,35,70"/>
<path fill="#FFFFFF" d="M18.799,29.331c-5.344,0-9.691,4.348-9.691,9.693c0,5.344,4.348,9.691,9.691,9.691
	c5.345,0,9.692-4.348,9.692-9.691C28.491,33.678,24.144,29.331,18.799,29.331z M18.799,46.165c-3.938,0-7.141-3.203-7.141-7.141
	s3.203-7.142,7.141-7.142s7.142,3.205,7.142,7.142S22.736,46.165,18.799,46.165z M50.308,29.331c-0.619,0-1.224,0.064-1.811,0.176
	c-1.324-3.993-2.633-7.937-2.633-7.937h1.981c2.469,0,4.231-1.808,4.231-4.275c0-0.715-0.579-1.294-1.295-1.294
	c-0.715,0-1.294,0.58-1.294,1.294c0,1.064-0.599,1.725-1.643,1.725c0,0-4.037,0-4.49,0c-0.578,0-0.869,0.46-0.708,0.955
	s1.143,3.446,1.143,3.446c-1.695,2.406-9.049,12.842-9.848,13.931c-0.216,0.295-0.564,0.273-0.681-0.068
	c-0.422-1.234-4.069-11.8-5.419-15.712c0,0,2.463,0,3.024,0c0.704,0,1.275-0.571,1.275-1.275s-0.571-1.275-1.275-1.275
	c-0.501,0-7.434,0-7.855,0c-0.704,0-1.275,0.571-1.275,1.275s0.571,1.275,1.275,1.275c0.438,0,2.132,0,2.132,0
	c0.977,2.829,5.352,15.5,5.828,16.906c0.353,1.04,1.105,1.703,2.149,1.806c1.109,0.109,2.103-0.383,2.75-1.266
	c0.702-0.957,6.264-8.819,8.918-12.585c0,0,0.574,1.732,1.287,3.885c-3.227,1.575-5.46,4.881-5.46,8.708
	c0,5.344,4.348,9.691,9.691,9.691c5.345,0,9.692-4.348,9.692-9.691C60,33.678,55.652,29.331,50.308,29.331z M50.308,46.165
	c-3.938,0-7.141-3.203-7.141-7.141c0-2.698,1.505-5.051,3.719-6.266c0.927,2.799,1.829,5.521,1.914,5.774
	c0.226,0.681,0.925,1.068,1.605,0.843s1.041-0.964,0.816-1.645c-0.079-0.243-0.919-2.779-1.911-5.771
	c0.327-0.046,0.658-0.078,0.997-0.078c3.938,0,7.142,3.205,7.142,7.142S54.245,46.165,50.308,46.165z"/>
<circle fill="#333946" cx="18.8" cy="39.024" r="4.354"/>
</svg>
